<?xml version="1.0" encoding="utf-8"?>
<svg version="1.1" xmlns:xlink="http://www.w3.org/1999/xlink" width="29px" height="31px" xmlns="http://www.w3.org/2000/svg">
  <g transform="matrix(1 0 0 1 -1571 -19 )">
    <path d="M 24.166666666666668 8.857142857142856  C 24.166666666666668 10.552455357142856  23.669487847222225 12.120907738095235  22.675130208333332 13.5625  C 23.266710069444446 13.72395833333333  23.829969618055557 13.943080357142856  24.364908854166668 14.21986607142857  C 24.89984809027778 14.496651785714286  25.4599609375 14.917596726190474  26.045247395833332 15.482700892857144  C 26.630533854166668 16.04780505952381  27.130859375 16.71382068452381  27.546223958333332 17.480747767857142  C 27.961588541666668 18.247674851190474  28.307725694444446 19.23949032738095  28.584635416666668 20.456194196428573  C 28.861545138888886 21.67289806547619  29 23.036644345238095  29 24.54743303571429  C 29 26.323474702380956  28.37065972222222 27.84291294642857  27.111979166666668 29.105747767857142  C 25.853298611111114 30.36858258928571  24.336588541666668 31  22.561848958333332 31  L 6.438151041666667 31  C 4.663411458333333 31  3.1467013888888893 30.36858258928571  1.8880208333333335 29.105747767857142  C 0.6293402777777777 27.84291294642857  0 26.323474702380956  0 24.54743303571429  C 0 23.036644345238095  0.1384548611111111 21.67289806547619  0.4153645833333333 20.456194196428573  C 0.6922743055555556 19.23949032738095  1.0384114583333333 18.247674851190474  1.4537760416666667 17.480747767857142  C 1.869140625 16.71382068452381  2.3694661458333335 16.04780505952381  2.9547526041666665 15.482700892857144  C 3.5400390625 14.917596726190474  4.100151909722223 14.496651785714286  4.635091145833333 14.21986607142857  C 5.170030381944445 13.943080357142856  5.733289930555556 13.72395833333333  6.324869791666667 13.5625  C 5.330512152777779 12.120907738095235  4.833333333333333 10.552455357142856  4.833333333333333 8.857142857142856  C 4.833333333333333 7.657738095238092  5.088216145833333 6.5131138392857135  5.597981770833333 5.4232700892857135  C 6.107747395833333 4.3334263392857135  6.796875 3.390625  7.665364583333334 2.59486607142857  C 8.533854166666666 1.7991071428571432  9.562825520833334 1.1676897321428568  10.752278645833334 0.7006138392857133  C 11.941731770833334 0.23353794642856995  13.190972222222223 0  14.5 0  C 15.80902777777778 0  17.058268229166668 0.23353794642856995  18.247721354166668 0.7006138392857133  C 19.437174479166668 1.1676897321428568  20.466145833333332 1.7991071428571432  21.334635416666668 2.59486607142857  C 22.203125 3.390625  22.892252604166668 4.3334263392857135  23.402018229166668 5.4232700892857135  C 23.911783854166668 6.5131138392857135  24.166666666666668 7.657738095238092  24.166666666666668 8.857142857142856  Z M 19.6259765625 4.160435267857143  C 18.209960937500004 2.8630022321428568  16.501302083333336 2.2142857142857135  14.5 2.2142857142857135  C 12.498697916666666 2.2142857142857135  10.7900390625 2.8630022321428568  9.3740234375 4.160435267857143  C 7.9580078125 5.45786830357143  7.25 7.0234375  7.25 8.857142857142856  C 7.25 10.690848214285714  7.9580078125 12.256417410714286  9.3740234375 13.55385044642857  C 10.7900390625 14.851283482142856  12.498697916666666 15.5  14.5 15.5  C 16.501302083333336 15.5  18.209960937500004 14.851283482142856  19.6259765625 13.55385044642857  C 21.0419921875 12.256417410714286  21.75 10.690848214285714  21.75 8.857142857142856  C 21.75 7.0234375  21.0419921875 5.45786830357143  19.6259765625 4.160435267857143  Z M 6.438151041666667 28.78571428571429  L 22.561848958333332 28.78571428571429  C 23.669487847222225 28.78571428571429  24.61664496527778 28.373418898809526  25.4033203125 27.548828125  C 26.189995659722225 26.724237351190474  26.583333333333332 25.723772321428573  26.583333333333332 24.54743303571429  C 26.583333333333332 21.79110863095238  26.08930121527778 19.6171875  25.101236979166668 18.025669642857142  C 24.113172743055557 16.43415178571429  22.694010416666668 15.598028273809522  20.84375 15.517299107142856  C 19.018663194444443 16.981956845238095  16.90407986111111 17.71428571428571  14.5 17.71428571428571  C 12.09592013888889 17.71428571428571  9.981336805555557 16.981956845238095  8.15625 15.517299107142856  C 6.305989583333333 15.598028273809522  4.886827256944445 16.43415178571429  3.898763020833333 18.025669642857142  C 2.9106987847222223 19.6171875  2.4166666666666665 21.79110863095238  2.4166666666666665 24.54743303571429  C 2.4166666666666665 25.723772321428573  2.810004340277778 26.724237351190474  3.5966796875 27.548828125  C 4.383355034722223 28.373418898809526  5.330512152777779 28.78571428571429  6.438151041666667 28.78571428571429  Z " fill-rule="nonzero" fill="#8c8c8c" stroke="none" transform="matrix(1 0 0 1 1571 19 )" />
  </g>
</svg>