<?xml version="1.0" encoding="utf-8"?>
<svg version="1.1" xmlns:xlink="http://www.w3.org/1999/xlink" width="63px" height="50px" xmlns="http://www.w3.org/2000/svg">
  <g transform="matrix(1 0 0 1 -1402 -707 )">
    <path d="M 62.70484122852681 3.1905195989061053  L 62.901613742842265 3.646308113035551  C 63.404476834981786 5.591005773321179  61.76470588235294 10.057733211789726  57.98230088495575 17.046490428441203  C 57.45757418011453 18.018839258584013  56.7470067673087 19.310240048617437  55.85059864653826 20.92069279854148  C 54.97605413846955 22.470373746581586  54.374804789172316 23.56426618049225  54.046850598646536 24.202370100273473  C 53.71889640812078 24.840474020054693  53.38547631441958 25.59252506836828  53.04659031754295 26.45852324521422  C 52.70770432066632 27.324521422060165  52.57652264445601 27.962625341841385  52.653045288912026 28.372835004557885  C 52.729567933368045 28.783044667274382  52.87168141592921 29.307201458523245  53.079385736595526 29.945305378304464  C 53.28709005726184 30.583409298085684  53.64237376366476 31.23670616833789  54.14523685580427 31.905195989061074  C 54.648099947943784 32.57368580978425  55.27121290994275 33.37891218474628  56.014575741801146 34.320875113947125  C 56.10203019260802 34.381646915831055  56.15668922436231 34.44241871771497  56.17855283706403 34.5031905195989  C 59.26132222800624 38.483743542996045  61.3492972410203 41.841385597082954  62.442477876106196 44.57611668185962  C 62.50806871421135 44.72804618656943  62.57912545549193 44.917958067456695  62.65564809994794 45.14585232452142  C 62.73217074440396 45.37374658158615  62.80869338885997 45.77635976906715  62.88521603331598 46.35369188696445  C 62.961738677772004 46.93102400486175  62.95627277459658 47.447584320875116  62.86881832378969 47.90337283500456  C 62.78136387298282 48.359161349134  62.50806871421135 48.776967487086  62.04893284747528 49.15679124886053  C 61.589796980739195 49.53661501063506  60.944820406038524 49.72652689152233  60.114003123373244 49.72652689152233  L 51.718375845913584 49.90884229717411  C 51.193649141072356 50.06077180188392  50.58146798542427 49.984807049529024  49.881832378969285 49.68094804010939  C 49.18219677251432 49.37708903068976  48.61374284226965 49.04284412032817  48.17647058823529 48.67821330902461  L 47.52056220718376 48.13126709206928  C 46.86465382613222 47.49316317228806  46.0994273815721 46.52081434214525  45.22488287350338 45.21422060164084  C 44.35033836543467 43.90762686113643  43.601509630400834 42.73017319963537  42.97839666840187 41.681859617137654  C 42.355283706402915 40.63354603463993  41.68844351900052 39.752354907322996  40.97787610619469 39.038286235186874  C 40.26730869338886 38.324217563050745  39.649661634565334 38.088726830750524  39.124934929724105 38.33181403828624  C 39.05934409161895 38.362199939228205  38.97188964081208 38.41537526587663  38.86257157730349 38.49134001823154  C 38.7532535137949 38.56730477058644  38.567412805830294 38.78760255241568  38.30504945340968 39.15223336371923  C 38.042686100989066 39.51686417502279  37.8076522644456 39.96505621391674  37.599947943779284 40.4968094804011  C 37.39224362311296 41.02856274688545  37.20640291514836 41.818596171376484  37.04242581988548 42.866909753874204  C 36.878448724622594 43.91522333637192  36.807391983342015 45.092676997872985  36.82925559604373 46.39927073837739  C 36.82925559604373 46.855059252506834  36.79099427381573 47.27286539045883  36.71447162935971 47.652689152233364  C 36.637948984903694 48.032512914007896  36.555960437272255 48.31358249772106  36.46850598646538 48.495897903372835  L 36.33732431025508 48.723792160437554  C 35.94377928162415 49.301124278334854  35.36439354502864 49.635369188696444  34.599167100468506 49.72652689152233  L 30.827693909422177 49.72652689152233  C 29.27537740760021 49.84807049529019  27.679333680374803 49.597386812519  26.039562727745967 48.97447584320875  C 24.399791775117126 48.3515648738985  22.96225923997918 47.5463384989365  21.726965122332118 46.5587967183227  C 20.491671004685063 45.5712549377089  19.36569495054659 44.56852020662412  18.34903695991671 43.55059252506837  C 17.33237896928683 42.53266484351261  16.561686621551274 41.65907019143118  16.036959916710046 40.929808568824065  L 15.217074440395628 39.835916134913404  C 14.99843831337845 39.53205712549377  14.697813638729832 39.07626861136432  14.315200416449766 38.46855059252507  C 13.932587194169704 37.860832573685805  13.15096304008329 36.47827408082649  11.970327954190527 34.320875113947125  C 10.789692868297763 32.163476147067755  9.630921395106716 29.869340625949558  8.494013534617388 27.438468550592525  C 7.357105674128058 25.007596475235488  6.01795939614784 21.8018839258584  4.476574700676731 17.82133090246126  C 2.935190005205622 13.840777879064115  1.508589276418532 9.708295350957158  0.1967725143154607 5.4238833181403825  C 0.06559083810515356 4.937708903068971  0 4.527499240352473  0 4.193254329990887  C 0 3.859009419629289  0.03279541905257678 3.6159222120935866  0.09838625715773035 3.463992707383773  L 0.2295679333680375 3.1905195989061053  C 0.5575221238938053 2.6131874810088105  1.1806350858927641 2.324521422060166  2.098906819364914 2.324521422060166  L 11.084851639770953 2.2333637192342772  C 11.347214992191567 2.2941355211181955  11.598646538261322 2.392889699179579  11.83914627798022 2.5296262534184155  C 12.079646017699115 2.6663628076572463  12.25455491931286 2.7955028866605836  12.363872982821448 2.917046490428443  L 12.527850078084331 3.0537830446672745  C 12.877667881311817 3.3880279550288606  13.140031233732431 3.8742023701002717  13.314940135346173 4.512306289881495  C 13.752212389380533 6.031601336979636  14.255075481520041 7.604071710726218  14.823529411764707 9.229717411121241  C 15.391983342009372 10.855363111516247  15.840187402394589 12.093588574901244  16.168141592920353 12.94439380127621  L 16.69286829776158 14.266180492251596  C 17.326913066111402 16.08933454876937  17.9390942217595 17.669401397751443  18.529411764705884 19.006381039197812  C 19.119729307652264 20.343360680644178  19.649921915668926 21.384077787906406  20.119989588755857 22.128532360984504  C 20.59005726184279 22.872986934062588  21.043727225403437 23.45791552719538  21.48099947943779 23.883318140382865  C 21.918271733472153 24.30872075357034  22.289953149401356 24.521422060164085  22.596043727225403 24.521422060164085  C 22.902134305049454 24.521422060164085  23.197293076522644 24.44545730780917  23.481520041644977 24.293527803099362  C 23.52524726704841 24.263141902157397  23.579906298802705 24.18717714980249  23.64549713690786 24.065633546034643  C 23.71108797501301 23.944089942266782  23.84226965122332 23.609845031905195  24.03904216553878 23.06289881494986  C 24.23581467985424 22.51595259799453  24.38339406559084 21.8018839258584  24.481780322748566 20.92069279854148  C 24.5801665799063 20.039501671224553  24.68401874023946 18.80887268307505  24.793336803748048 17.22880583409298  C 24.90265486725664 15.648738985110905  24.90265486725664 13.749620176238226  24.793336803748048 11.53144940747493  C 24.749609578344614 10.316013369796412  24.651223321186887 9.20692798541477  24.498178032274854 8.204193254329988  C 24.345132743362832 7.201458523245213  24.19208745445081 6.502582801580065  24.03904216553878 6.107566089334549  L 23.84226965122332 5.560619872379213  C 23.295679333680376 4.527499240352473  22.36647579385737 3.874202370100266  21.054659031754298 3.600729261622609  C 20.77043206663196 3.5399574597386794  20.825091098386256 3.1753266484351172  21.218636127017177 2.506836827711939  C 21.568453930244665 1.9295047098146445  21.983862571577305 1.4737161956851985  22.464862051015096 1.1394712853236122  C 23.623633524206145 0.3494378608325688  26.236335242061426 -0.01519295047098801  30.30296720458095 0.04557885141294182  C 32.095783446121814 0.07596475235490119  33.57157730348777 0.2734731084776676  34.73034877667882 0.6381039197812188  C 35.16762103071317 0.7900334244910323  35.53383654346695 0.9951382558492816  35.82899531494014 1.2534184138559723  C 36.12415408641333 1.5116985718626463  36.34825611660594 1.8763293831662031  36.50130140551796 2.347310847766637  C 36.65434669442999 2.81829231236706  36.769130661114005 3.304466727438471  36.84565330557002 3.8058340929808585  C 36.92217595002604 4.307201458523241  36.96043727225403 4.998480704952896  36.96043727225403 5.879671832269828  C 36.96043727225403 6.76086295958675  36.94950546590318 7.596475235490729  36.92764185320146 8.386508659981768  C 36.90577824049975 9.1765420844728  36.878448724622594 10.247645092676994  36.84565330557002 11.599817684594349  C 36.81285788651744 12.9519902765117  36.796460176991154 14.205408690367666  36.796460176991154 15.36007292616226  C 36.796460176991154 15.694317836523847  36.7855283706403 16.33242175630507  36.76366475793857 17.27438468550593  C 36.741801145236856 18.216347614706773  36.73633524206143 18.94560923731389  36.74726704841228 19.462169553327257  C 36.758198854763144 19.978729869340622  36.796460176991154 20.59404436341537  36.862051015096306 21.3081130355515  C 36.92764185320146 22.022181707687633  37.05335762623634 22.61470677605591  37.239198334200935 23.08568824065634  C 37.425039042165544 23.556669705256756  37.67100468505986 23.928896991795806  37.977095262883914 24.202370100273473  C 38.15200416449766 24.263141902157397  38.33784487246226 24.323913704041324  38.53461738677772 24.38468550592525  C 38.73138990109318 24.44545730780917  39.01561686621552 24.27833485262838  39.38729828214472 23.883318140382865  C 39.75897969807392 23.488301428137344  40.17438833940656 22.964144636888477  40.63352420614263 22.310847766636282  C 41.09266007287871 21.657550896384077  41.66111400312338 20.63962321482832  42.33888599687663 19.25706472196901  C 43.01665799062988 17.874506229109695  43.76002082248829 16.24126405347918  44.568974492451844 14.357338195077485  C 45.880791254554914 11.197204497113333  47.05049453409682 7.7787906411425025  48.07808433107756 4.102096627164997  C 48.165538781884436 3.7982376177453645  48.274856845393025 3.532360984503191  48.406038521603335 3.304466727438471  C 48.53722019781364 3.076572470373745  48.65747006767309 2.917046490428443  48.76678813118168 2.825888787602554  L 48.89796980739199 2.6891522333637177  L 49.06194690265487 2.5752051048313573  C 49.06194690265487 2.5752051048313573  49.20406038521604 2.5296262534184155  49.48828735033836 2.4384685505925265  C 49.7725143154607 2.347310847766637  49.99115044247788 2.339714372531143  50.1441957313899 2.415679124886055  L 59.589276418532016 2.324521422060166  C 60.44195731389901 2.1725919173503416  61.141592920353986 2.2105742935278005  61.68818323789693 2.4384685505925265  C 62.23477355543989 2.6663628076572463  62.573659552316514 2.917046490428443  62.70484122852681 3.1905195989061053  Z " fill-rule="nonzero" fill="#000000" stroke="none" transform="matrix(1 0 0 1 1402 707 )" />
  </g>
</svg>