<?xml version="1.0" encoding="utf-8"?>
<svg version="1.1" xmlns:xlink="http://www.w3.org/1999/xlink" width="361px" height="219px" xmlns="http://www.w3.org/2000/svg">
  <g transform="matrix(1 0 0 1 -1239 -468 )">
    <path d="M 1239 468  L 1600 468  L 1600 687  L 1239 687  L 1239 468  " fill-rule="nonzero" fill="#cccccc" stroke="none" />
    <path d="M 1254 483  L 1585 483  L 1585 672  L 1254 672  L 1254 483  " fill-rule="nonzero" fill="#ffffff" stroke="none" />
    <path d="M 1443.145 533.7  C 1433.9470000000001 533.7  1426.72 526.4730000000001  1426.72 517.2750000000001  C 1426.72 508.07700000000006  1433.9470000000001 500.85  1443.145 500.85  C 1452.3429999999998 500.85  1459.57 508.07700000000006  1459.57 517.2750000000001  C 1459.57 526.4730000000001  1452.3429999999998 533.7  1443.145 533.7  " fill-rule="nonzero" fill="#cccccc" stroke="none" />
    <path d="M 1260 667  L 1260 569.1  L 1340 524.6  L 1452 602.209972299169  L 1516 551.3  L 1580 602.209972299169  L 1580 667  L 1260 667  " fill-rule="nonzero" fill="#169bd5" stroke="none" />
  </g>
</svg>