<?xml version="1.0" encoding="utf-8"?>
<svg version="1.1" xmlns:xlink="http://www.w3.org/1999/xlink" width="300px" height="170px" xmlns="http://www.w3.org/2000/svg">
  <defs>
    <mask fill="white" id="clip5">
      <path d="M 300 388  L 300 223  C 300 220.225  302.225 218  305 218  L 595 218  C 597.775 218  600 220.225  600 223  L 600 388  " fill-rule="evenodd" />
    </mask>
  </defs>
  <g transform="matrix(1 0 0 1 -300 -218 )">
    <path d="M 300 218  L 600 218  L 600 388  L 300 388  L 300 218  " fill-rule="nonzero" fill="#cccccc" stroke="none" mask="url(#clip5)" />
    <path d="M 312 230  L 588 230  L 588 376  L 312 376  L 312 230  " fill-rule="nonzero" fill="#ffffff" stroke="none" mask="url(#clip5)" />
    <path d="M 468.75 269  C 461.61 269  456 263.39  456 256.25  C 456 249.11  461.61 243.5  468.75 243.5  C 475.89 243.5  481.5 249.11  481.5 256.25  C 481.5 263.39  475.89 269  468.75 269  " fill-rule="nonzero" fill="#cccccc" stroke="none" mask="url(#clip5)" />
    <path d="M 317 372  L 317 296.65  L 383.75 262.4  L 477.2 325.42  L 530.6 282.95  L 584 325.42  L 584 372  L 317 372  " fill-rule="nonzero" fill="#169bd5" stroke="none" mask="url(#clip5)" />
  </g>
</svg>